<svg width="118" height="18" viewBox="40 0 118 18" fill="none" xmlns="http://www.w3.org/2000/svg">
<path d="M47.9649 17H50.8169L51.9439 13.412H58.4759L59.6144 17H62.4664L57.2454 0.439999H53.1859L47.9649 17ZM52.7604 10.8245L55.1869 3.1195L57.6479 10.8245H52.7604ZM69.525 17.345C70.261 17.345 70.9242 17.2338 71.5145 17.0115C72.1049 16.7892 72.6224 16.4787 73.067 16.08V17H75.5165V0.439999H72.722V5.1895C72.308 4.88283 71.8442 4.649 71.3305 4.488C70.8169 4.31933 70.2495 4.235 69.6285 4.235C68.4555 4.235 67.4359 4.51867 66.5695 5.086C65.7109 5.65333 65.0439 6.4315 64.5685 7.4205C64.0932 8.4095 63.8555 9.53267 63.8555 10.79C63.8555 12.032 64.0894 13.1475 64.557 14.1365C65.0247 15.1255 65.684 15.9075 66.535 16.4825C67.386 17.0575 68.3827 17.345 69.525 17.345ZM69.9505 14.861C69.2299 14.861 68.6357 14.6808 68.168 14.3205C67.7004 13.9525 67.3515 13.4618 67.1215 12.8485C66.8992 12.2352 66.788 11.549 66.788 10.79C66.788 10.0387 66.903 9.35633 67.133 8.743C67.3707 8.122 67.7272 7.63133 68.2025 7.271C68.6855 6.903 69.2989 6.719 70.0425 6.719C71.1005 6.719 71.8672 7.09467 72.3425 7.846C72.8255 8.59733 73.067 9.57867 73.067 10.79C73.067 11.9937 72.8255 12.975 72.3425 13.734C71.8672 14.4853 71.0699 14.861 69.9505 14.861ZM78.7179 17H81.5124V9.3525C81.5124 8.57817 81.7232 7.9495 82.1449 7.4665C82.5742 6.9835 83.1415 6.742 83.8469 6.742C84.5752 6.742 85.1502 6.9835 85.5719 7.4665C85.9935 7.9495 86.2044 8.62417 86.2044 9.4905V17H88.9644V9.3525C88.9644 8.53217 89.1867 7.892 89.6314 7.432C90.0837 6.972 90.6434 6.742 91.3104 6.742C92.0234 6.742 92.5907 6.9835 93.0124 7.4665C93.4417 7.94183 93.6564 8.605 93.6564 9.456V17H96.4279V8.7545C96.4279 7.40517 96.0599 6.32033 95.3239 5.5C94.5955 4.67967 93.5452 4.2695 92.1729 4.2695C91.3679 4.2695 90.6319 4.44583 89.9649 4.7985C89.2979 5.15117 88.7727 5.63417 88.3894 6.2475C88.0597 5.64183 87.592 5.16267 86.9864 4.81C86.3807 4.44967 85.6409 4.2695 84.7669 4.2695C84.0232 4.2695 83.337 4.419 82.7084 4.718C82.0874 5.00933 81.5737 5.41183 81.1674 5.9255V4.58H78.7179V17ZM99.6574 2.694H102.429V0.1525H99.6574V2.694ZM99.6574 17H102.429V4.58H99.6574V17ZM105.851 17H108.657V10.6175C108.657 9.61317 108.799 8.83883 109.082 8.2945C109.374 7.7425 109.742 7.363 110.186 7.156C110.639 6.94133 111.099 6.834 111.566 6.834C112.226 6.834 112.751 6.97967 113.142 7.271C113.533 7.55467 113.82 7.91883 114.004 8.3635C114.196 8.8005 114.319 9.25667 114.372 9.732C114.434 10.2073 114.464 10.6367 114.464 11.02V17H117.27V10.0655C117.27 9.77417 117.243 9.387 117.19 8.904C117.144 8.421 117.036 7.91117 116.868 7.3745C116.699 6.83783 116.438 6.33183 116.086 5.8565C115.733 5.3735 115.254 4.9825 114.648 4.6835C114.05 4.37683 113.295 4.2235 112.383 4.2235C111.486 4.2235 110.696 4.38067 110.014 4.695C109.339 5.00167 108.776 5.42333 108.323 5.96V4.58H105.851V17Z" fill="#1F3BB3"/>
</svg>
